<svg xmlns="http://www.w3.org/2000/svg" viewBox="0 0 1023 1027" width="1023" height="1027"><defs></defs><g transform="matrix(1,0,0,1,3529.170504534,644.182589255)">
<g>
	<g>
		<g>
			<g>
				<g>
					<path d="M-3256.0573844027585,-643.1903504937176 C-3261.7907218051023,-641.4570169060711 -3267.25739660979,-638.1236829369549 -3270.9907340121335,-634.1236829369549 C-3284.324047000415,-619.8570165246014 -3300.0573844027585,-573.1903485863689 -3307.25739660979,-525.723681411076 C-3318.0573844027585,-455.32367225580253 -3314.324047000415,-369.0569943993572 -3298.590709598071,-324.3903379052166 C-3290.190746219165,-300.5236692040447 -3289.25739660979,-305.19032569818535 -3309.7907218051023,-268.790331801701 C-3341.7907218051023,-212.65700050287285 -3374.324047000415,-152.65700050287285 -3380.190746219165,-139.32362647943535 C-3388.8573721957273,-119.32362647943535 -3388.8573721957273,-118.65700050287285 -3376.9907340121335,-96.12367530756035 C-3371.524059207446,-85.59035011224785 -3363.9240836215085,-71.72365089349785 -3360.0573844027585,-65.19032569818535 C-3356.324047000415,-58.65700050287285 -3353.524059207446,-52.65700050287285 -3353.7907218051023,-51.72365089349785 C-3354.190746219165,-50.9236631005291 -3358.324047000415,-49.5902890770916 -3362.9907340121335,-48.65700050287285 C-3374.590709598071,-46.5236386864666 -3394.324047000415,-39.8570127099041 -3407.9240836215085,-33.5902890770916 C-3447.524059207446,-15.190325698185347 -3487.390727908618,25.342999497127153 -3507.25739660979,67.6096620947834 C-3528.324077517993,112.4097109229084 -3534.324077517993,161.0763368994709 -3524.7240714144773,208.5430117041584 C-3521.9240531039304,221.74302391118965 -3513.657390506274,246.80967430181465 -3507.9240531039304,258.9430361182209 C-3490.9907340121335,294.80967430181465 -3464.9907340121335,324.9430361182209 -3430.9907340121335,347.8763857275959 C-3419.524059207446,355.6096620947834 -3393.1240347933835,368.5430117041584 -3380.0573844027585,372.8097353369709 C-3336.8573721957273,386.8097353369709 -3283.9240225863523,386.2764101416584 -3241.524059207446,371.3430605322834 C-3215.524059207446,362.1429872900959 -3189.25739660979,346.80967430181465 -3168.7240714144773,328.9430361182209 C-3136.1906851840085,300.4097109229084 -3111.657359988696,260.67637352056465 -3100.590709598071,218.4097109229084 C-3096.590709598071,203.0763368994709 -3093.39069739104,179.0763368994709 -3093.39069739104,164.67637352056465 C-3093.39069739104,156.0096865088459 -3092.9907340121335,154.14304832525215 -3091.524059207446,154.67637352056465 C-3070.324047000415,162.80967430181465 -3031.9240225863523,172.4097109229084 -3001.1240347933835,177.20969871587715 C-2975.39069739104,181.20969871587715 -2915.52399817229,181.4763613135334 -2888.7240714144773,177.74302391118965 C-2814.324047000415,167.4763613135334 -2753.65729895354,146.0096865088459 -2688.457347781665,106.9430361182209 C-2648.8573721957273,83.0763368994709 -2612.7240714144773,55.6096620947834 -2581.39069739104,25.342999497127153 C-2551.39069739104,-3.5902890770915974 -2511.7907218051023,-50.5236386864666 -2507.25739660979,-62.5236386864666 C-2505.25739660979,-67.72365089349785 -2505.25739660979,-68.79030128412285 -2508.0573233676023,-79.19032569818535 C-2512.324047000415,-95.8570127099041 -2519.7907218051023,-113.8570127099041 -2556.1906241488523,-194.25700660638847 C-2574.457347781665,-234.52366920404472 -2589.39069739104,-268.65700050287285 -2589.39069739104,-269.856982192326 C-2589.39069739104,-271.19032569818535 -2588.1906241488523,-274.2570066063885 -2586.7240714144773,-276.790331801701 C-2583.25739660979,-282.65700050287285 -2571.9240225863523,-317.19032569818535 -2566.8573721957273,-337.3236569970135 C-2561.7907218051023,-357.19032569818535 -2556.8573721957273,-385.59035011224785 -2553.7907218051023,-413.0569943993572 C-2550.324047000415,-443.8570127099041 -2550.324047000415,-521.8570127099041 -2553.7907218051023,-545.723681411076 C-2561.39069739104,-597.5903501122478 -2576.1906241488523,-632.1236829369549 -2594.0573233676023,-639.1903485863689 C-2600.457347781665,-641.5903501122478 -2616.9906729769773,-640.9236821740154 -2625.9240225863523,-637.8570165246014 C-2644.590648562915,-631.3236836998943 -2677.52399817229,-610.6570157616619 -2708.0573233676023,-586.257014235783 C-2731.1239737582273,-567.8570127099041 -2774.190746219165,-525.4570035546307 -2796.0573233676023,-499.723681411076 C-2816.457347781665,-475.723681411076 -2822.7240714144773,-469.723681411076 -2827.7907218051023,-469.723681411076 C-2829.7907218051023,-469.723681411076 -2835.9240225863523,-470.5236692040447 -2841.39069739104,-471.5903348534588 C-2866.0573233676023,-476.3903379052166 -2899.9240225863523,-480.65700050287285 -2923.25739660979,-481.8570127099041 C-2969.7907218051023,-484.5236692040447 -3019.25739660979,-481.1903409569744 -3042.9907340121335,-473.723681411076 C-3047.657359988696,-472.2570066063885 -3052.1906851840085,-471.0570096581463 -3052.9907340121335,-471.0570096581463 C-3053.9240225863523,-471.0570096581463 -3058.324047000415,-476.65700050287285 -3062.9907340121335,-483.45700355463066 C-3094.9907340121335,-531.1903409569744 -3137.657359988696,-575.1903485863689 -3190.8573721957273,-615.0570134728436 C-3222.324047000415,-638.6570157616619 -3242.324047000415,-647.3236836998943 -3256.0573844027585,-643.1903504937176 C-3256.0573844027585,-643.1903504937176 -3256.0573844027585,-643.1903504937176 -3256.0573844027585,-643.1903504937176 C-3256.0573844027585,-643.1903504937176 -3256.0573844027585,-643.1903504937176 -3256.0573844027585,-643.1903504937176 ZM-3228.7240714144773,-591.9903440087322 C-3224.324047000415,-589.0570172875408 -3216.1906851840085,-583.0570096581463 -3210.7240714144773,-578.6570157616619 C-3197.25739660979,-567.8570127099041 -3142.0573844027585,-512.2570066063885 -3128.1906851840085,-495.723681411076 C-3115.9240225863523,-480.92367835931816 -3094.1906851840085,-452.12367530756035 -3085.657359988696,-439.5903348534588 C-3079.657359988696,-430.5236692040447 -3073.524059207446,-424.790331801701 -3068.724010379321,-423.5903348534588 C-3066.8573721957273,-423.1903409569744 -3061.7907218051023,-423.9903440087322 -3056.9907340121335,-425.5903348534588 C-3047.9240225863523,-428.65700050287285 -3016.590709598071,-434.92367835931816 -2996.0573844027585,-437.8570127099041 C-2976.1906851840085,-440.790331801701 -2899.9240225863523,-440.3903379052166 -2880.0573233676023,-437.32367225580253 C-2861.39069739104,-434.3903379052166 -2838.590648562915,-429.45700355463066 -2826.0573233676023,-425.5903348534588 C-2826.0573233676023,-425.5903348534588 -2816.7240714144773,-422.65700050287285 -2816.7240714144773,-422.65700050287285 C-2816.7240714144773,-422.65700050287285 -2809.7907218051023,-425.7236661522869 -2809.7907218051023,-425.7236661522869 C-2804.0573233676023,-428.12367530756035 -2799.65729895354,-432.2570066063885 -2784.457347781665,-448.79034706049003 C-2746.457347781665,-490.3903379052166 -2729.39069739104,-507.9903440087322 -2708.7240714144773,-527.4570035546307 C-2674.9906729769773,-558.9236783593182 -2646.0573233676023,-581.1903485863689 -2626.9906729769773,-590.1236829369549 C-2618.9906729769773,-593.8570127099041 -2618.0573233676023,-593.9903440087322 -2614.8573721957273,-592.257014235783 C-2607.25739660979,-587.9903440087322 -2600.1906241488523,-568.6570157616619 -2595.65729895354,-540.3903379052166 C-2593.1239737582273,-524.6570157616619 -2592.8573721957273,-516.9236783593182 -2592.7240714144773,-478.3903379052166 C-2592.7240714144773,-432.5236692040447 -2593.9240225863523,-417.7236661522869 -2600.1906241488523,-381.723681411076 C-2605.39069739104,-351.5903195946697 -2616.590648562915,-312.12367530756035 -2627.52399817229,-285.19032569818535 C-2632.7240714144773,-272.5236692040447 -2632.0573233676023,-267.0569943993572 -2622.8573721957273,-246.65700050287285 C-2618.590648562915,-236.9236631005291 -2608.324047000415,-213.19032569818535 -2600.0573233676023,-193.72365089349785 C-2580.590648562915,-147.4569882958416 -2578.457347781665,-142.65700050287285 -2569.7907218051023,-123.9903134911541 C-2565.7907218051023,-115.19032569818535 -2562.8573721957273,-107.8570127099041 -2563.25739660979,-107.4569882958416 C-2563.52399817229,-107.0569638817791 -2572.0573233676023,-109.8570127099041 -2581.9240225863523,-113.59035011224785 C-2659.7907218051023,-142.9236631005291 -2722.190746219165,-143.4569882958416 -2807.52399817229,-115.19032569818535 C-2830.190746219165,-107.72365089349785 -2844.7240714144773,-101.0569638817791 -2866.8573721957273,-88.3903379052166 C-2895.9240225863523,-71.59035011224785 -2932.190746219165,-54.5236386864666 -2954.590648562915,-47.19032569818535 C-2963.1240347933835,-44.3903379052166 -2990.724010379321,-40.9236631005291 -2994.0573844027585,-42.25697608881035 C-2995.39069739104,-42.79030128412285 -2995.1240347933835,-44.5236386864666 -2992.590709598071,-50.65700050287285 C-2985.657359988696,-67.8570127099041 -2985.657359988696,-79.72365089349785 -2992.590709598071,-90.79030128412285 C-3010.0573844027585,-118.65700050287285 -3081.9240225863523,-128.3903379052166 -3121.1240347933835,-108.5236386864666 C-3135.39069739104,-101.32362647943535 -3143.25739660979,-89.72365089349785 -3144.8573721957273,-73.8570127099041 C-3145.39069739104,-69.32362647943535 -3146.1906851840085,-65.72365089349785 -3146.590709598071,-65.72365089349785 C-3146.9907340121335,-65.72365089349785 -3155.7907218051023,-74.3903379052166 -3166.0573844027585,-84.9236631005291 C-3186.9907340121335,-106.5236386864666 -3202.0573844027585,-117.4569882958416 -3228.7240714144773,-130.3903379052166 C-3256.7240714144773,-143.9903134911541 -3278.9907340121335,-148.9236631005291 -3312.324047000415,-149.0569638817791 C-3330.0573844027585,-149.0569638817791 -3336.0573844027585,-149.4569882958416 -3336.0573844027585,-150.65700050287285 C-3336.0573844027585,-153.8570127099041 -3282.7240714144773,-252.79033180170097 -3263.9240225863523,-284.5236692040447 C-3258.8573721957273,-292.9236631005291 -3254.324047000415,-301.72365089349785 -3253.9240225863523,-303.9903440087322 C-3253.39069739104,-306.790331801701 -3254.590709598071,-312.65700050287285 -3258.0573844027585,-323.0569943993572 C-3270.8573721957273,-363.0569943993572 -3275.1240347933835,-393.0569943993572 -3275.25739660979,-445.0570096581463 C-3275.39069739104,-483.8570127099041 -3274.7240714144773,-491.723681411076 -3268.590709598071,-525.1903409569744 C-3263.39069739104,-553.723681411076 -3251.524059207446,-588.79034706049 -3244.457408816821,-596.6570157616619 C-3241.657359988696,-599.723681411076 -3238.9907340121335,-598.9236783593182 -3228.7240714144773,-591.9903440087322 C-3228.7240714144773,-591.9903440087322 -3228.7240714144773,-591.9903440087322 -3228.7240714144773,-591.9903440087322 C-3228.7240714144773,-591.9903440087322 -3228.7240714144773,-591.9903440087322 -3228.7240714144773,-591.9903440087322 ZM-3288.0573844027585,-110.3903379052166 C-3273.25739660979,-107.19032569818535 -3248.457408816821,-98.65700050287285 -3236.457408816821,-92.65700050287285 C-3221.524059207446,-85.0569638817791 -3204.324047000415,-73.19032569818535 -3188.7240714144773,-59.5902890770916 C-3171.657359988696,-44.65700050287285 -3162.457347781665,-37.8570127099041 -3146.7240714144773,-28.790301284122847 C-3139.7907218051023,-24.657000502872847 -3125.657359988696,-16.390337905216597 -3115.39069739104,-10.390337905216597 C-3105.1240347933835,-4.390337905216597 -3094.324047000415,1.3429994971271526 -3091.39069739104,2.4097109229084026 C-3083.524059207446,4.943036118220903 -3081.7907218051023,6.943036118220903 -3081.1240347933835,14.009686508845903 C-3080.724010379321,17.476361313533403 -3078.8573721957273,24.143048325252153 -3076.8573721957273,28.943036118220903 C-3072.0573844027585,40.67637352056465 -3071.9240225863523,40.27634910650215 -3078.590709598071,40.67637352056465 C-3091.9240225863523,41.6096620947834 -3110.324047000415,32.5430117041584 -3127.9240225863523,16.543011704158403 C-3132.9907340121335,11.876324692439653 -3138.8573721957273,7.476361313533403 -3140.8573721957273,7.076336899470903 C-3148.7240714144773,5.076336899470903 -3156.0573844027585,11.876324692439653 -3156.0573844027585,20.943036118220903 C-3156.0573844027585,36.5430117041584 -3128.457347781665,60.14304832525215 -3100.590709598071,68.4097109229084 C-3088.457347781665,72.0096865088459 -3069.7907218051023,71.74302391118965 -3057.657359988696,67.74302391118965 C-3057.657359988696,67.74302391118965 -3047.9240225863523,64.5430117041584 -3047.9240225863523,64.5430117041584 C-3047.9240225863523,64.5430117041584 -3037.657359988696,69.34299949712715 -3037.657359988696,69.34299949712715 C-3022.590709598071,76.4097109229084 -3007.9240225863523,79.6096620947834 -2986.0573844027585,80.5430117041584 C-2971.657359988696,81.0763368994709 -2964.590709598071,80.80967430181465 -2955.39069739104,79.0763368994709 C-2921.39069739104,72.80967430181465 -2890.324047000415,56.5430117041584 -2865.9240225863523,32.27634910650215 C-2852.9906729769773,19.342999497127153 -2846.7240714144773,9.209698715877153 -2846.7240714144773,0.9430361182209026 C-2846.7240714144773,-7.723650893497847 -2853.7907218051023,-13.723650893497847 -2864.0573233676023,-13.723650893497847 C-2869.1239737582273,-13.723650893497847 -2870.190746219165,-12.923663100529097 -2883.1239737582273,-0.12367530756034739 C-2900.590648562915,17.476361313533403 -2912.190746219165,26.143048325252153 -2928.7240714144773,34.27634910650215 C-2946.457347781665,43.0763368994709 -2960.724010379321,46.14304832525215 -2982.8573721957273,46.27634910650215 C-3015.25739660979,46.27634910650215 -3035.39069739104,37.87632469243965 -3048.324047000415,18.676373520564653 C-3051.1240347933835,14.676373520564653 -3053.39069739104,9.743023911189653 -3053.39069739104,7.743023911189653 C-3053.39069739104,4.543011704158403 -3052.457347781665,3.7430239111896526 -3046.1906851840085,1.0763368994709026 C-3042.1906851840085,-0.5236386864665974 -3034.9907340121335,-4.256976088810347 -3030.0573844027585,-7.190325698185347 C-3030.0573844027585,-7.190325698185347 -3021.1240347933835,-12.657000502872847 -3021.1240347933835,-12.657000502872847 C-3021.1240347933835,-12.657000502872847 -3000.324047000415,-11.056963881779097 -3000.324047000415,-11.056963881779097 C-2966.324047000415,-8.523638686466597 -2944.0573233676023,-12.390337905216597 -2910.324047000415,-27.056963881779097 C-2891.9240225863523,-34.9236631005291 -2868.0573233676023,-46.5236386864666 -2843.39069739104,-59.4569882958416 C-2756.590648562915,-105.0569638817791 -2670.590648562915,-107.8570127099041 -2580.0573233676023,-67.9903134911541 C-2563.1239737582273,-60.65700050287285 -2561.39069739104,-59.5902890770916 -2561.39069739104,-56.9236631005291 C-2561.39069739104,-54.25697608881035 -2591.1239737582273,-19.723650893497847 -2610.590648562915,0.1429872900959026 C-2637.52399817229,27.609662094783403 -2663.52399817229,47.87632469243965 -2698.7240714144773,68.67637352056465 C-2765.25739660979,108.14304832525215 -2817.39069739104,126.5430117041584 -2892.7240714144773,137.20969871587715 C-2900.457347781665,138.27634910650215 -2919.52399817229,138.9430361182209 -2946.0573233676023,138.9430361182209 C-2990.8573721957273,138.9430361182209 -3003.657359988696,137.6096620947834 -3039.39069739104,129.6096620947834 C-3097.1240347933835,116.67637352056465 -3160.1906851840085,87.20969871587715 -3208.324047000415,50.80967430181465 C-3262.9907340121335,9.342999497127153 -3306.190746219165,-39.0569638817791 -3336.590709598071,-93.0569638817791 C-3343.657359988696,-105.72365089349785 -3345.25739660979,-110.65700050287285 -3342.9907340121335,-112.9236631005291 C-3341.39069739104,-114.79030128412285 -3298.8573721957273,-112.65700050287285 -3288.0573844027585,-110.3903379052166 C-3288.0573844027585,-110.3903379052166 -3288.0573844027585,-110.3903379052166 -3288.0573844027585,-110.3903379052166 C-3288.0573844027585,-110.3903379052166 -3288.0573844027585,-110.3903379052166 -3288.0573844027585,-110.3903379052166 ZM-3327.9240225863523,-13.456988295841597 C-3326.7240714144773,-12.523638686466597 -3321.1240347933835,-5.990313491154097 -3315.39069739104,0.9430361182209026 C-3291.1240347933835,30.143048325252153 -3254.457408816821,63.0763368994709 -3216.590709598071,89.74302391118965 C-3197.524059207446,103.0763368994709 -3165.524059207446,122.4097109229084 -3147.7907218051023,131.0763368994709 C-3147.7907218051023,131.0763368994709 -3134.8573721957273,137.4763613135334 -3134.8573721957273,137.4763613135334 C-3134.8573721957273,137.4763613135334 -3133.9240225863523,147.4763613135334 -3133.9240225863523,147.4763613135334 C-3132.590709598071,161.8763857275959 -3134.1906851840085,184.9430361182209 -3137.524059207446,200.27634910650215 C-3145.1240347933835,235.8763857275959 -3161.1240347933835,264.9430361182209 -3187.25739660979,290.9430361182209 C-3222.457408816821,325.8763857275959 -3262.457408816821,342.4097109229084 -3311.9240225863523,342.27634910650215 C-3322.9907340121335,342.27634910650215 -3336.0573844027585,341.4763613135334 -3342.9907340121335,340.27634910650215 C-3397.524059207446,330.80967430181465 -3444.590709598071,295.60972312993965 -3469.7907218051023,245.4763613135334 C-3498.590740115649,188.27634910650215 -3494.9907340121335,119.34299949712715 -3460.324047000415,65.6096620947834 C-3433.9240836215085,24.543011704158403 -3394.8573721957273,-1.7236508934978474 -3344.590709598071,-12.390337905216597 C-3330.0573844027585,-15.456988295841597 -3330.324047000415,-15.456988295841597 -3327.9240225863523,-13.456988295841597 C-3327.9240225863523,-13.456988295841597 -3327.9240225863523,-13.456988295841597 -3327.9240225863523,-13.456988295841597 C-3327.9240225863523,-13.456988295841597 -3327.9240225863523,-13.456988295841597 -3327.9240225863523,-13.456988295841597 Z" fill="#000000"/>
				</g>
			</g>
			<g>
				<g>
					<path d="M-3192.0573844027585,-245.85698219232597 C-3210.324047000415,-239.99034400873222 -3221.1240347933835,-229.4569882958416 -3226.1906851840085,-212.65700050287285 C-3228.590709598071,-205.05699439935722 -3227.524059207446,-199.72365089349785 -3223.25739660979,-196.9236631005291 C-3219.1240347933835,-194.12364478998222 -3215.524059207446,-195.19032569818535 -3208.0573844027585,-200.79033180170097 C-3200.324047000415,-206.65700050287285 -3194.9907340121335,-208.3903379052166 -3184.0573844027585,-208.3903379052166 C-3162.8573721957273,-208.3903379052166 -3139.7907218051023,-194.79033180170097 -3125.25739660979,-173.4569882958416 C-3117.524059207446,-162.25700660638847 -3111.9240225863523,-160.12364478998222 -3106.8573721957273,-166.52366920404472 C-3101.39069739104,-173.4569882958416 -3103.7907218051023,-192.3903379052166 -3112.1906851840085,-209.72365089349785 C-3126.0573844027585,-237.85698219232597 -3163.7907218051023,-255.05699439935722 -3192.0573844027585,-245.85698219232597 C-3192.0573844027585,-245.85698219232597 -3192.0573844027585,-245.85698219232597 -3192.0573844027585,-245.85698219232597 C-3192.0573844027585,-245.85698219232597 -3192.0573844027585,-245.85698219232597 -3192.0573844027585,-245.85698219232597 Z" fill="#000000"/>
				</g>
			</g>
			<g>
				<g>
					<path d="M-2850.7240714144773,-236.25700660638847 C-2878.590648562915,-229.05699439935722 -2901.9240225863523,-208.79033180170097 -2912.0573233676023,-183.05699439935722 C-2916.9906729769773,-170.52366920404472 -2914.190746219165,-161.72365089349785 -2905.25739660979,-161.72365089349785 C-2899.9240225863523,-161.72365089349785 -2896.8573721957273,-163.4569882958416 -2887.9240225863523,-171.59031959466972 C-2878.0573233676023,-180.65700050287285 -2867.7907218051023,-186.52366920404472 -2853.6574210238523,-191.4569882958416 C-2843.1239737582273,-195.19032569818535 -2840.457347781665,-195.59031959466972 -2825.39069739104,-195.59031959466972 C-2806.8573721957273,-195.72365089349785 -2799.9240225863523,-193.85698219232597 -2787.52399817229,-185.9903134911541 C-2779.7907218051023,-181.05699439935722 -2773.9240225863523,-180.52366920404472 -2768.8573721957273,-184.52366920404472 C-2758.190746219165,-192.9236631005291 -2772.7240714144773,-219.4569882958416 -2794.190746219165,-230.65700050287285 C-2810.590648562915,-239.32365699701347 -2831.1239737582273,-241.4569882958416 -2850.7240714144773,-236.25700660638847 C-2850.7240714144773,-236.25700660638847 -2850.7240714144773,-236.25700660638847 -2850.7240714144773,-236.25700660638847 C-2850.7240714144773,-236.25700660638847 -2850.7240714144773,-236.25700660638847 -2850.7240714144773,-236.25700660638847 Z" fill="#000000"/>
				</g>
			</g>
			<g>
				<g>
					<path d="M-3329.39069739104,54.9430361182209 C-3342.8573721957273,57.4763613135334 -3361.1240347933835,66.67637352056465 -3371.657359988696,76.27634910650215 C-3385.9240836215085,89.20969871587715 -3397.7907218051023,110.4097109229084 -3399.9240836215085,126.9430361182209 C-3399.9240836215085,126.9430361182209 -3400.7240714144773,133.6096620947834 -3400.7240714144773,133.6096620947834 C-3400.7240714144773,133.6096620947834 -3411.39069739104,134.4097109229084 -3411.39069739104,134.4097109229084 C-3417.25739660979,134.80967430181465 -3423.1240347933835,135.6096620947834 -3424.324047000415,136.14304832525215 C-3430.324047000415,138.9430361182209 -3432.8573721957273,150.67637352056465 -3428.590709598071,156.67637352056465 C-3425.524059207446,161.0763368994709 -3421.6574210238523,162.67637352056465 -3412.0573844027585,163.4763613135334 C-3412.0573844027585,163.4763613135334 -3403.39069739104,164.27634910650215 -3403.39069739104,164.27634910650215 C-3403.39069739104,164.27634910650215 -3402.9907340121335,170.67637352056465 -3402.9907340121335,170.67637352056465 C-3402.457408816821,179.60972312993965 -3403.9240836215085,180.9430361182209 -3414.324047000415,180.9430361182209 C-3422.457408816821,180.9430361182209 -3423.25739660979,181.20969871587715 -3427.524059207446,185.4763613135334 C-3430.9907340121335,188.9430361182209 -3432.0573844027585,191.0763368994709 -3432.0573844027585,194.9430361182209 C-3432.0573844027585,204.9430361182209 -3426.590709598071,208.9430361182209 -3412.457408816821,208.9430361182209 C-3407.524059207446,208.9430361182209 -3402.7240714144773,209.4763613135334 -3401.9240836215085,210.0096865088459 C-3401.1240347933835,210.5430117041584 -3399.1240347933835,215.0763368994709 -3397.524059207446,220.27634910650215 C-3392.590709598071,235.4763613135334 -3386.9907340121335,244.80967430181465 -3375.9240836215085,255.8763857275959 C-3367.39069739104,264.4097109229084 -3363.39069739104,267.20969871587715 -3351.7907218051023,272.80967430181465 C-3333.657359988696,281.60972312993965 -3320.8573721957273,284.27634910650215 -3300.8573721957273,283.20969871587715 C-3284.190746219165,282.4097109229084 -3272.324047000415,279.20969871587715 -3258.590709598071,272.0096865088459 C-3242.590709598071,263.74302391118965 -3240.324047000415,258.14304832525215 -3247.524059207446,244.9430361182209 C-3251.7907218051023,237.20969871587715 -3256.324047000415,232.9430361182209 -3260.590709598071,232.9430361182209 C-3262.0573844027585,232.9430361182209 -3270.3300284457273,237.57322410650215 -3279.117992312915,242.12376121587715 C-3279.117992312915,242.12376121587715 -3283.582347781665,244.32053855962715 -3291.070201785571,246.8479433447834 C-3296.5041617465085,248.68211082525215 -3307.1882437777585,249.3037538916584 -3307.1882437777585,249.3037538916584 C-3322.9215811801023,249.3037538916584 -3325.46784582854,247.46226219243965 -3334.0011710238523,243.1955995947834 C-3342.567699344165,238.1249208838459 -3352.590709598071,227.4763613135334 -3356.590709598071,218.9430361182209 C-3360.7240714144773,210.27634910650215 -3369.5857047152585,203.13523582525215 -3336.119029910571,203.13523582525215 C-3336.119029910571,203.13523582525215 -3311.536022098071,203.13523582525215 -3311.536022098071,203.13523582525215 C-3311.536022098071,203.13523582525215 -3293.582164676196,203.6876650244709 -3293.582164676196,203.6876650244709 C-3288.248851687915,198.8876161963459 -3289.42975989104,191.7433290869709 -3293.0297354769773,186.00999168462715 C-3297.42975989104,178.94334129400215 -3298.8573721957273,182.67637352056465 -3332.0573844027585,181.60972312993965 C-3348.590709598071,181.0763368994709 -3363.1240347933835,180.0096865088459 -3364.324047000415,179.34299949712715 C-3367.1240347933835,178.0096865088459 -3367.657359988696,170.0096865088459 -3364.9907340121335,167.8763857275959 C-3364.190746219165,167.20969871587715 -3350.7240714144773,165.8763857275959 -3335.39069739104,165.0763368994709 C-3289.9240225863523,162.4097109229084 -3294.667613894946,167.35093406743965 -3290.2675894808835,163.0842714697834 C-3282.9616812777585,155.53745750493965 -3288.4128531527585,147.8243837744709 -3289.3468741488523,143.9335146338459 C-3289.3468741488523,143.9335146338459 -3284.37507239104,141.84653953618965 -3325.438793094165,139.63682273931465 C-3349.9721182894773,140.17014793462715 -3366.9321402621335,142.4603701025959 -3361.7907218051023,133.34299949712715 C-3362.324047000415,132.5430117041584 -3361.7907218051023,129.34299949712715 -3360.7240714144773,126.14304832525215 C-3355.7907218051023,111.8763857275959 -3341.39069739104,99.4763613135334 -3324.8573721957273,94.9430361182209 C-3311.657359988696,91.34299949712715 -3293.25739660979,92.67637352056465 -3279.39069739104,98.14304832525215 C-3266.590709598071,103.0763368994709 -3262.7240714144773,103.34299949712715 -3257.7907218051023,99.0763368994709 C-3254.324047000415,96.0096865088459 -3254.0573844027585,95.20969871587715 -3254.0573844027585,85.34299949712715 C-3254.1906851840085,79.4763613135334 -3254.9907340121335,73.6096620947834 -3255.9240225863523,71.74302391118965 C-3257.9240225863523,68.0096865088459 -3272.8573721957273,60.80967430181465 -3286.8573721957273,56.9430361182209 C-3299.9240225863523,53.34299949712715 -3316.7240714144773,52.5430117041584 -3329.39069739104,54.9430361182209 C-3329.39069739104,54.9430361182209 -3329.39069739104,54.9430361182209 -3329.39069739104,54.9430361182209 C-3329.39069739104,54.9430361182209 -3329.39069739104,54.9430361182209 -3329.39069739104,54.9430361182209 Z" fill="#000000"/>
				</g>
			</g>
		</g>
	</g>
</g></g></svg>